<?xml version="1.0" standalone="no"?>
<!DOCTYPE svg PUBLIC "-//W3C//DTD SVG 20010904//EN"
 "http://www.w3.org/TR/2001/REC-SVG-20010904/DTD/svg10.dtd">
<svg version="1.0" xmlns="http://www.w3.org/2000/svg"
 width="476.000000pt" height="480.000000pt" viewBox="0 0 476.000000 480.000000"
 preserveAspectRatio="xMidYMid meet">
<metadata>
Created by potrace 1.15, written by Peter Selinger 2001-2017
</metadata>
<g transform="translate(0.000000,480.000000) scale(0.100000,-0.100000)"
fill="#000000" stroke="none">
<path d="M4625 4794 c-16 -2 -75 -9 -130 -15 -1150 -126 -2203 -616 -2782
-1293 -118 -139 -131 -150 -151 -134 -8 7 -21 27 -29 45 -62 149 95 471 420
861 38 46 66 86 62 90 -15 15 -378 -373 -546 -583 -309 -386 -560 -829 -679
-1198 -12 -37 -24 -67 -26 -67 -3 0 -19 13 -37 30 -71 66 -255 130 -423 145
l-75 7 81 -103 c125 -161 170 -268 170 -410 0 -44 -2 -47 -31 -53 -17 -3 -47
-6 -65 -6 -19 0 -34 -2 -34 -5 0 -3 11 -22 24 -43 100 -160 151 -353 127 -480
-17 -85 -63 -168 -161 -290 -49 -62 -90 -120 -90 -128 0 -8 16 -46 35 -84 67
-133 57 -190 -49 -286 -52 -47 -155 -108 -218 -128 -36 -11 -20 -49 50 -116
100 -96 216 -147 420 -184 36 -6 44 9 10 19 -42 13 -108 89 -108 125 0 5 9 19
20 30 25 25 107 27 170 5 23 -8 44 -15 45 -15 2 0 -3 13 -11 30 -9 16 -18 54
-20 82 -13 141 123 215 321 174 176 -36 260 -105 260 -215 0 -107 -98 -251
-181 -264 -38 -6 -142 5 -176 18 -27 11 -22 -16 11 -62 19 -26 52 -52 95 -74
36 -19 65 -38 63 -44 -6 -18 -101 -43 -197 -52 l-95 -8 71 -37 c101 -53 213
-78 354 -78 139 0 232 25 293 78 25 22 21 29 -13 24 -119 -17 -184 71 -107
145 47 46 145 91 262 121 l103 27 46 -33 c25 -18 71 -45 103 -60 56 -26 64
-27 223 -27 171 1 192 4 415 58 l130 32 -180 5 -181 5 -69 35 c-44 22 -71 42
-73 54 -4 17 1 18 53 11 100 -12 335 -7 440 10 421 67 854 292 1057 549 42 53
37 71 -9 38 -56 -39 -240 -132 -343 -173 -182 -72 -283 -93 -450 -94 -195 0
-250 19 -250 90 0 33 42 124 80 172 11 14 19 28 17 30 -2 2 -26 -7 -53 -19
-45 -20 -69 -22 -287 -26 -130 -3 -237 -8 -237 -13 0 -5 17 -17 39 -28 48 -25
91 -75 91 -106 0 -95 -222 -191 -485 -210 -104 -8 -219 14 -254 49 -23 23 -24
28 -13 64 23 77 102 150 205 187 53 20 52 26 -8 45 -99 31 -165 78 -165 117 0
41 25 75 131 178 140 136 301 254 484 357 242 136 603 251 980 312 220 36 548
66 718 66 48 0 87 4 87 9 0 14 -105 21 -440 27 -662 13 -1064 -58 -1473 -262
-191 -95 -363 -200 -535 -327 -30 -21 -56 -36 -60 -32 -17 16 116 213 205 303
27 26 84 80 127 120 44 39 77 74 74 78 -11 10 -269 -121 -368 -187 -158 -105
-268 -228 -400 -443 -30 -49 -60 -91 -67 -93 -7 -3 -14 19 -18 64 -13 129 -43
245 -86 331 -23 46 -45 79 -49 75 -4 -4 -12 -50 -19 -101 -14 -110 -34 -168
-85 -242 -26 -37 -35 -60 -31 -75 17 -56 17 -142 0 -179 -22 -46 -55 -64 -129
-67 -52 -2 -60 0 -76 22 -36 51 -34 57 39 132 148 155 201 279 216 512 3 55 8
122 11 148 l6 49 35 -34 c71 -68 133 -163 172 -263 22 -55 43 -112 46 -128 20
-79 35 14 35 218 0 77 -5 158 -10 180 -8 33 -5 48 14 91 100 219 419 519 681
640 119 55 227 44 233 -23 4 -42 -18 -83 -165 -311 -69 -106 -124 -194 -122
-196 2 -2 71 59 153 136 302 284 509 441 716 544 241 120 799 315 1470 514
327 97 304 89 297 96 -3 3 -113 -11 -244 -30 -131 -20 -323 -47 -428 -61 -104
-14 -201 -27 -215 -30 -65 -14 -267 -22 -348 -14 -104 9 -153 30 -199 83 -43
48 -57 96 -50 176 21 253 211 454 671 710 303 169 593 297 1133 501 79 30 143
57 143 62 0 7 -74 7 -135 1z"/>
</g>
</svg>
