<?xml version="1.0" standalone="no"?>
<!DOCTYPE svg PUBLIC "-//W3C//DTD SVG 20010904//EN"
 "http://www.w3.org/TR/2001/REC-SVG-20010904/DTD/svg10.dtd">
<svg version="1.0" xmlns="http://www.w3.org/2000/svg"
 width="593.000000pt" height="592.000000pt" viewBox="0 0 593.000000 592.000000"
 preserveAspectRatio="xMidYMid meet">
<metadata>
Created by potrace 1.16, written by Peter Selinger 2001-2019
</metadata>
<g transform="translate(0.000000,592.000000) scale(0.100000,-0.100000)"
fill="#000000" stroke="none">
<path d="M2655 5193 c-27 -2 -102 -10 -166 -18 -994 -126 -1841 -657 -2216
-1390 -128 -251 -189 -489 -200 -775 -19 -532 204 -1046 634 -1461 456 -439
1089 -725 1803 -815 195 -24 601 -29 802 -10 1075 104 1981 657 2358 1438 364
755 190 1588 -461 2213 -465 446 -1122 731 -1864 810 -128 13 -540 18 -690 8z
m690 -63 c744 -87 1379 -366 1834 -805 410 -395 623 -862 624 -1365 0 -221
-33 -404 -110 -610 -101 -271 -249 -496 -478 -726 -470 -471 -1136 -766 -1910
-845 -174 -17 -540 -15 -723 5 -968 105 -1787 573 -2200 1258 -193 321 -285
700 -254 1051 21 233 71 412 177 632 376 780 1288 1321 2385 1415 120 11 536
4 655 -10z"/>
<path d="M2946 4791 c-15 -17 -17 -36 -13 -153 3 -73 6 -151 8 -172 4 -39 3
-40 -53 -73 -61 -36 -114 -90 -190 -198 -113 -158 -187 -350 -219 -565 l-13
-86 -35 -1 c-20 0 -45 -2 -56 -4 -17 -4 -21 3 -26 51 -4 31 -31 112 -61 185
-30 72 -70 165 -88 209 l-33 79 27 53 c14 30 26 63 26 74 0 28 -39 26 -99 -5
-37 -18 -51 -21 -58 -12 -14 18 -48 102 -84 202 -42 118 -74 191 -88 200 -16
9 -41 -13 -41 -35 0 -10 24 -76 54 -147 77 -183 98 -245 86 -257 -16 -16 -12
-44 9 -55 23 -13 34 -40 23 -55 -9 -12 -9 -92 1 -116 3 -8 36 -97 73 -197 46
-127 75 -192 95 -213 16 -16 29 -36 29 -43 0 -23 -29 -54 -62 -67 -18 -7 -42
-21 -53 -31 -29 -25 -69 -40 -165 -59 l-85 -17 3 -59 c2 -32 8 -76 13 -98 l10
-39 52 7 c29 3 84 14 122 24 39 11 77 21 85 23 18 5 68 -89 77 -145 5 -30 2
-41 -10 -48 -10 -5 -17 -16 -17 -24 0 -18 -57 -104 -69 -104 -5 0 -11 -6 -14
-14 -8 -20 61 -126 82 -126 12 0 39 37 85 114 37 63 74 117 83 120 16 7 39 -7
61 -37 9 -11 21 -15 37 -11 17 4 26 0 34 -14 19 -36 41 -107 41 -137 0 -16 9
-55 20 -85 l19 -55 -25 -20 c-19 -16 -24 -29 -23 -60 1 -22 8 -48 17 -57 11
-14 13 -31 8 -78 -7 -56 -6 -60 14 -60 18 0 20 -6 20 -75 0 -67 2 -75 19 -75
24 0 90 23 173 62 55 25 73 39 93 74 14 23 25 49 25 57 0 8 -25 30 -56 48 -53
32 -59 39 -93 119 -20 47 -54 110 -74 140 -61 90 -42 79 25 -14 78 -111 161
-194 215 -217 l43 -18 0 -111 c0 -110 0 -111 23 -108 21 3 22 7 25 115 l3 113
38 19 c64 33 195 185 256 299 15 28 30 50 32 48 5 -4 -36 -78 -86 -155 -20
-31 -48 -88 -64 -127 -25 -64 -32 -73 -82 -103 -31 -19 -58 -38 -61 -42 -7
-12 45 -98 70 -114 37 -24 197 -85 223 -85 24 0 25 1 21 72 -3 69 -2 73 20 76
26 4 26 4 10 71 -10 43 -9 53 4 68 22 26 30 90 13 107 -8 8 -20 16 -27 18 -10
4 -9 16 4 54 10 27 22 78 27 112 14 89 39 138 69 134 16 -1 34 8 52 28 45 48
45 48 136 -104 33 -55 67 -102 76 -104 16 -3 88 87 88 111 0 6 -13 24 -29 39
-15 15 -34 42 -41 60 -7 18 -22 43 -33 55 -21 24 -18 43 25 146 23 52 32 55
96 33 70 -25 190 -42 204 -28 17 17 37 170 24 181 -6 4 -40 14 -76 20 -90 17
-130 30 -165 55 -16 11 -46 29 -65 39 -65 33 -71 75 -18 117 10 9 51 102 93
215 71 190 74 203 70 268 -4 63 -2 68 20 83 27 18 31 35 14 62 -13 21 -5 47
77 242 71 169 72 175 44 190 -36 19 -36 19 -125 -225 -52 -141 -68 -175 -82
-175 -6 0 -32 9 -58 20 -93 40 -111 21 -66 -68 l30 -59 -65 -154 c-114 -269
-125 -298 -118 -325 9 -34 -12 -57 -38 -43 -11 6 -33 9 -49 7 -27 -4 -29 -2
-34 41 -11 79 -34 192 -54 255 -71 229 -234 478 -359 549 l-54 30 7 46 c4 25
9 105 11 177 4 112 3 134 -11 148 -21 21 -28 20 -49 -3z"/>
<path d="M1264 2483 c-111 -146 -159 -203 -334 -396 -69 -76 -126 -145 -128
-152 -2 -7 14 -33 35 -56 44 -49 170 -159 182 -159 4 0 23 21 41 48 58 81 150
191 295 352 218 243 235 263 235 274 0 12 -157 166 -202 197 l-26 19 -98 -127z
m146 -84 c0 -6 -57 -76 -127 -157 -71 -80 -161 -184 -202 -231 -66 -78 -101
-107 -101 -84 0 4 28 40 63 79 34 40 125 147 202 238 127 151 165 186 165 155z"/>
<path d="M4629 2542 c-113 -89 -110 -80 -61 -175 42 -85 171 -331 223 -426 16
-30 29 -62 29 -72 0 -29 -122 -129 -158 -129 -5 0 -63 82 -130 183 -130 198
-223 326 -245 338 -22 13 -217 -145 -217 -175 0 -7 14 -31 31 -52 92 -114 244
-362 336 -546 28 -58 43 -78 58 -78 24 0 215 65 263 89 27 14 44 37 81 111 52
107 73 127 96 92 9 -12 21 -22 26 -22 13 0 216 162 223 178 3 7 -18 45 -46 85
-95 133 -263 391 -331 508 -96 166 -88 162 -178 91z m114 -219 c31 -54 103
-172 161 -262 59 -91 105 -169 103 -175 -2 -5 -14 -10 -27 -11 -17 -1 -63 -42
-150 -133 -131 -137 -143 -146 -207 -160 -62 -14 -80 2 -162 145 -41 70 -108
179 -148 241 -75 116 -82 132 -60 132 15 -1 91 -119 212 -329 l90 -156 40 -3
c77 -5 105 14 244 164 l130 142 -61 93 c-99 153 -238 388 -238 404 0 23 26
-10 73 -92z"/>
<path d="M1620 2298 c-5 -13 -34 -88 -65 -168 -31 -79 -62 -158 -70 -175 -8
-16 -57 -129 -110 -249 -77 -177 -93 -222 -83 -232 21 -20 188 -114 203 -114
8 0 44 57 82 126 37 70 73 128 79 131 25 9 206 -100 212 -128 2 -9 -24 -70
-58 -135 l-60 -118 20 -21 c30 -32 228 -131 239 -120 11 12 360 781 367 810 4
17 -13 30 -109 83 -62 34 -116 62 -118 62 -3 0 -34 -58 -69 -130 -35 -71 -70
-130 -78 -130 -24 0 -164 62 -190 85 l-26 23 47 138 c26 77 47 144 47 150 0
13 -215 134 -237 134 -8 0 -18 -10 -23 -22z m113 -164 c5 -5 -56 -160 -99
-247 -18 -37 -17 -38 2 -56 24 -24 407 -231 426 -231 8 0 36 51 68 123 59 134
69 152 82 139 4 -4 -5 -36 -22 -70 -16 -34 -30 -65 -30 -68 0 -15 -214 -464
-221 -464 -18 0 -8 30 52 160 33 72 59 136 57 142 -5 13 -418 237 -439 238
-15 0 -40 -48 -115 -217 -13 -29 -28 -53 -34 -53 -17 0 -11 24 21 91 66 136
197 431 222 502 6 17 19 22 30 11z"/>
<path d="M3850 2067 c-47 -12 -91 -26 -99 -31 -11 -7 -13 -40 -10 -160 3 -94
0 -153 -6 -156 -5 -3 -46 56 -91 129 -44 74 -86 137 -92 139 -20 6 -121 -19
-136 -34 -8 -8 -17 -40 -20 -71 -13 -127 -28 -247 -33 -260 -10 -25 -19 -13
-52 65 -19 42 -49 110 -67 151 -34 73 -34 73 -67 67 -77 -14 -227 -67 -227
-80 0 -7 50 -105 112 -217 61 -112 154 -287 206 -389 52 -102 103 -193 114
-202 13 -12 29 -16 47 -12 29 6 121 35 121 37 0 1 9 94 20 207 11 113 20 206
20 208 0 1 7 2 15 2 8 0 32 -34 55 -79 53 -107 135 -244 154 -261 13 -10 27
-10 78 0 93 20 96 26 97 171 0 68 6 269 12 445 7 177 9 329 6 338 -8 22 -51
20 -157 -7z m36 -359 c-8 -319 -16 -440 -28 -436 -6 2 -70 98 -142 214 -159
253 -175 276 -190 271 -6 -2 -14 -39 -17 -88 -4 -46 -13 -129 -19 -184 -7 -55
-18 -145 -24 -200 -6 -55 -15 -100 -21 -99 -14 1 -93 138 -268 464 -22 41 -44
79 -48 85 -5 5 -9 18 -9 30 1 19 1 19 20 -3 11 -13 51 -84 90 -157 119 -225
187 -340 201 -340 11 0 16 26 20 105 9 148 48 443 60 455 14 14 34 -14 136
-185 126 -213 177 -290 188 -287 6 2 12 88 16 213 8 257 18 384 32 384 7 0 8
-79 3 -242z"/>
<path d="M2548 1919 c-10 -5 -18 -14 -18 -19 0 -10 -47 -110 -202 -435 -149
-311 -180 -381 -176 -408 3 -20 13 -23 123 -39 77 -11 124 -13 131 -7 7 5 21
32 33 59 25 57 11 54 180 37 l114 -12 14 -55 c7 -30 19 -60 26 -66 12 -12 172
-34 241 -34 32 0 36 3 36 26 0 54 -138 651 -201 865 l-19 65 -122 13 c-68 8
-127 15 -133 17 -5 2 -18 -1 -27 -7z m171 -143 c5 -6 21 -56 36 -111 15 -55
40 -145 56 -200 29 -105 99 -373 99 -381 0 -2 -4 -4 -9 -4 -5 0 -17 22 -26 49
-9 27 -21 54 -28 59 -12 9 -344 46 -421 47 -34 0 -43 -5 -60 -31 -48 -72 -47
-72 -40 -44 10 38 289 603 307 621 17 17 70 15 86 -5z"/>
<path d="M2652 1757 c-20 -23 -232 -461 -232 -478 0 -13 16 -18 83 -23 45 -4
136 -14 202 -21 66 -8 124 -10 128 -6 5 5 -5 60 -22 122 -17 63 -47 175 -67
249 -20 74 -40 143 -45 152 -11 21 -32 23 -47 5z m32 -331 c9 -27 16 -65 16
-84 l0 -35 -54 7 c-100 11 -100 13 -39 125 40 72 49 71 77 -13z"/>
</g>
</svg>
